<svg width="490" height="510" viewBox="0 0 490 510" fill="none" xmlns="http://www.w3.org/2000/svg">
<path d="M202.893 23.0663C222.657 -7.47463 267.343 -7.47463 287.107 23.0663V23.0663C300.005 42.9979 325.112 51.1555 347.262 42.612V42.612C381.203 29.5209 417.354 55.7862 415.392 92.1114V92.1114C414.112 115.818 429.628 137.175 452.57 143.283V143.283C487.724 152.642 501.532 195.14 478.594 223.374V223.374C463.624 241.801 463.624 268.199 478.594 286.626V286.626C501.532 314.86 487.724 357.358 452.57 366.717V366.717C429.628 372.825 414.112 394.182 415.392 417.889V417.889C417.354 454.214 381.203 480.479 347.262 467.388V467.388C325.112 458.845 300.005 467.002 287.107 486.934V486.934C267.343 517.475 222.657 517.475 202.893 486.934V486.934C189.995 467.002 164.888 458.845 142.738 467.388V467.388C108.797 480.479 72.6457 454.214 74.6077 417.889V417.889C75.8882 394.182 60.3716 372.825 37.4297 366.717V366.717C2.27605 357.358 -11.5324 314.86 11.4063 286.626V286.626C26.3765 268.199 26.3765 241.801 11.4063 223.374V223.374C-11.5324 195.14 2.27605 152.642 37.4297 143.283V143.283C60.3716 137.175 75.8882 115.818 74.6077 92.1114V92.1114C72.6457 55.7862 108.797 29.5209 142.738 42.612V42.612C164.888 51.1555 189.995 42.9979 202.893 23.0663V23.0663Z" fill="#E4F794"/>
</svg>
