<svg width="163" height="22" viewBox="0 0 163 22" fill="none" xmlns="http://www.w3.org/2000/svg">
<path d="M0.351562 13.3828C0.481771 13.1484 0.611979 12.8099 0.742188 12.3672C0.872396 11.9245 0.976562 11.4297 1.05469 10.8828C1.15885 10.3359 1.27604 9.78906 1.40625 9.24219C1.53646 8.66927 1.66667 8.14844 1.79688 7.67969C1.95312 7.21094 2.1224 6.83333 2.30469 6.54688C2.51302 6.26042 2.7474 6.11719 3.00781 6.11719C3.0599 6.11719 3.13802 6.13021 3.24219 6.15625C3.34635 6.15625 3.41146 6.15625 3.4375 6.15625C5.9375 8.29167 8.59375 10.2188 11.4062 11.9375C14.2448 13.6302 17.1615 15.1406 20.1562 16.4688C20.2083 16.4688 20.2734 16.4688 20.3516 16.4688C20.4297 16.4688 20.4948 16.4688 20.5469 16.4688C20.7031 16.4688 20.8464 16.4557 20.9766 16.4297C21.1068 16.4036 21.224 16.2734 21.3281 16.0391C20.9896 15.2839 20.6771 14.4245 20.3906 13.4609C20.1302 12.4974 19.8958 11.5208 19.6875 10.5312C19.4792 9.54167 19.3099 8.59115 19.1797 7.67969C19.0495 6.74219 18.9844 5.92188 18.9844 5.21875C18.9844 5.11458 18.9974 4.97135 19.0234 4.78906C19.0755 4.60677 19.1276 4.42448 19.1797 4.24219C19.2318 4.03385 19.3099 3.86458 19.4141 3.73438C19.5182 3.57812 19.6484 3.5 19.8047 3.5C19.9089 3.5 20.0651 3.52604 20.2734 3.57812C20.4818 3.60417 20.6901 3.66927 20.8984 3.77344C21.1328 3.8776 21.3281 4.00781 21.4844 4.16406C21.6406 4.29427 21.7188 4.45052 21.7188 4.63281C21.7188 4.91927 21.6536 5.20573 21.5234 5.49219C21.3932 5.7526 21.3281 6.02604 21.3281 6.3125V6.50781C21.3281 6.58594 21.3411 6.74219 21.3672 6.97656C21.4193 7.21094 21.4583 7.45833 21.4844 7.71875C21.5365 7.95312 21.5755 8.1875 21.6016 8.42188C21.6276 8.63021 21.6536 8.76042 21.6797 8.8125V9.20312C21.862 9.82812 22.0703 10.5182 22.3047 11.2734C22.5391 12.0286 22.7474 12.8099 22.9297 13.6172C23.138 14.3984 23.3073 15.2057 23.4375 16.0391C23.5677 16.8464 23.6328 17.6276 23.6328 18.3828C23.6328 18.6432 23.6198 18.8906 23.5938 19.125C23.5677 19.3333 23.5026 19.5286 23.3984 19.7109C23.3203 19.8932 23.1901 20.0365 23.0078 20.1406C22.8255 20.2188 22.5911 20.2578 22.3047 20.2578C21.9922 20.2578 21.6797 20.2057 21.3672 20.1016C21.0547 19.9974 20.7552 19.8542 20.4688 19.6719C20.1823 19.4635 19.9219 19.2552 19.6875 19.0469C19.4531 18.8125 19.2318 18.5911 19.0234 18.3828L4.17969 10.3359H4.02344V10.2969C3.86719 10.2969 3.72396 10.4271 3.59375 10.6875C3.48958 10.9219 3.38542 11.1823 3.28125 11.4688C3.20312 11.7552 3.13802 12.0156 3.08594 12.25C3.03385 12.4844 3.00781 12.6146 3.00781 12.6406C3.00781 12.7448 3.02083 12.9271 3.04688 13.1875C3.07292 13.4479 3.09896 13.7734 3.125 14.1641C3.15104 14.5286 3.17708 14.9193 3.20312 15.3359C3.22917 15.7266 3.25521 16.1042 3.28125 16.4688C3.30729 16.8333 3.33333 17.1589 3.35938 17.4453C3.41146 17.7057 3.4375 17.888 3.4375 17.9922V20.6484C3.38542 20.7786 3.29427 20.8698 3.16406 20.9219C3.0599 20.974 2.92969 21.013 2.77344 21.0391C2.64323 21.0651 2.5 21.0651 2.34375 21.0391C2.21354 21.0391 2.13542 21.0391 2.10938 21.0391C2.00521 21.0391 1.83594 21.026 1.60156 21C1.36719 21 1.21094 21 1.13281 21L0.351562 13.3828ZM35.9375 19.0859C35.5208 19.0859 35.0781 19.151 34.6094 19.2812C34.1667 19.3854 33.724 19.5156 33.2812 19.6719C32.8385 19.8281 32.3698 19.9714 31.875 20.1016C31.4062 20.2057 30.9245 20.2578 30.4297 20.2578C29.6745 20.2578 28.9453 20.1406 28.2422 19.9062C27.5391 19.6719 26.9141 19.3203 26.3672 18.8516C25.8464 18.3828 25.4297 17.8229 25.1172 17.1719C24.8047 16.4948 24.6484 15.7396 24.6484 14.9062C24.6484 14.1771 24.8698 13.5 25.3125 12.875C25.7812 12.25 26.3542 11.7292 27.0312 11.3125C27.7083 10.8958 28.4375 10.5703 29.2188 10.3359C30 10.1016 30.7031 9.98438 31.3281 9.98438C31.6146 9.98438 31.9661 10.0104 32.3828 10.0625C32.8255 10.0885 33.2943 10.1536 33.7891 10.2578C34.3099 10.3359 34.8307 10.4531 35.3516 10.6094C35.8724 10.7396 36.3411 10.9219 36.7578 11.1562C37.2005 11.3906 37.5651 11.6641 37.8516 11.9766C38.1641 12.263 38.3464 12.6016 38.3984 12.9922C38.3984 13.1224 38.3724 13.3568 38.3203 13.6953C38.2682 14.0078 38.2292 14.3464 38.2031 14.7109C38.1771 15.0755 38.138 15.4271 38.0859 15.7656C38.0599 16.0781 38.0339 16.3125 38.0078 16.4688V16.7031C38.0078 17.276 38.138 17.7057 38.3984 17.9922C38.6589 18.2786 38.9714 18.487 39.3359 18.6172C39.7266 18.7214 40.1302 18.7734 40.5469 18.7734H41.7969C42.1875 18.7734 42.4349 18.7734 42.5391 18.7734C42.6432 18.7474 42.7083 18.7344 42.7344 18.7344C42.7865 18.7344 42.8516 18.7344 42.9297 18.7344C43.0339 18.7083 43.2943 18.6953 43.7109 18.6953C44.0495 18.6953 44.3099 18.7604 44.4922 18.8906C44.6745 19.0208 44.7656 19.2943 44.7656 19.7109C44.7656 20.1536 44.6224 20.4661 44.3359 20.6484C44.0495 20.8307 43.7109 20.9479 43.3203 21C42.9297 21.0781 42.5391 21.1042 42.1484 21.0781C41.7578 21.0521 41.4583 21.0391 41.25 21.0391C40.651 21.0391 40.0781 20.9349 39.5312 20.7266C39.0104 20.5182 38.5286 20.2969 38.0859 20.0625C37.6432 19.8021 37.2396 19.5807 36.875 19.3984C36.5104 19.1901 36.1979 19.0859 35.9375 19.0859ZM26.9531 15.2969C26.9531 15.9219 27.0833 16.4297 27.3438 16.8203C27.6302 17.1849 27.9688 17.4583 28.3594 17.6406C28.776 17.7969 29.2318 17.901 29.7266 17.9531C30.2214 17.9792 30.7031 17.9922 31.1719 17.9922C31.3542 17.9922 31.6536 17.9792 32.0703 17.9531C32.513 17.9271 32.9688 17.875 33.4375 17.7969C33.9062 17.6927 34.3229 17.5625 34.6875 17.4062C35.0781 17.25 35.2995 17.0547 35.3516 16.8203L36.1328 13.7734C36.1849 13.5651 36.1328 13.3828 35.9766 13.2266C35.8203 13.0703 35.599 12.9401 35.3125 12.8359C35.0521 12.7318 34.7526 12.6406 34.4141 12.5625C34.1016 12.4844 33.7891 12.4193 33.4766 12.3672C33.1641 12.3151 32.8776 12.276 32.6172 12.25C32.3828 12.224 32.2396 12.2109 32.1875 12.2109C31.7188 12.2109 31.1719 12.263 30.5469 12.3672C29.9479 12.4453 29.375 12.6016 28.8281 12.8359C28.3073 13.0443 27.8646 13.3438 27.5 13.7344C27.1354 14.125 26.9531 14.6458 26.9531 15.2969ZM45.3516 13.3828C45.3255 13.3828 45.2604 13.3438 45.1562 13.2656C45.0521 13.1615 45 13.0703 45 12.9922C44.974 12.9922 44.9609 12.9661 44.9609 12.9141V12.7188C44.9609 12.6927 44.974 12.6667 45 12.6406C45.2865 12.3542 45.5208 12.1458 45.7031 12.0156C45.9115 11.8854 46.1849 11.8203 46.5234 11.8203C46.6276 11.8203 46.7188 11.8464 46.7969 11.8984C46.901 11.9505 46.9792 12.0026 47.0312 12.0547C47.0833 12.1068 47.1354 12.1589 47.1875 12.2109C47.2656 12.263 47.3438 12.2891 47.4219 12.2891C47.5 12.2891 47.6562 12.1719 47.8906 11.9375C48.125 11.6771 48.4375 11.3646 48.8281 11C49.2188 10.6354 49.7005 10.2448 50.2734 9.82812C50.8464 9.38542 51.4844 8.98177 52.1875 8.61719C52.9167 8.2526 53.6979 7.95312 54.5312 7.71875C55.3906 7.45833 56.3281 7.32812 57.3438 7.32812H57.5781C57.6823 7.35417 57.8906 7.40625 58.2031 7.48438C58.5417 7.53646 58.8932 7.61458 59.2578 7.71875C59.6224 7.79688 59.9609 7.875 60.2734 7.95312C60.612 8.00521 60.8464 8.04427 60.9766 8.07031C61.0026 8.09635 61.0547 8.14844 61.1328 8.22656C61.2109 8.27865 61.2891 8.34375 61.3672 8.42188C61.4453 8.47396 61.5104 8.53906 61.5625 8.61719C61.6406 8.69531 61.6927 8.76042 61.7188 8.8125C61.7188 8.83854 61.7318 8.8776 61.7578 8.92969C61.7578 8.92969 61.7578 8.94271 61.7578 8.96875C61.7839 8.99479 61.7969 9.00781 61.7969 9.00781L61.7578 9.08594C61.7578 9.08594 61.7578 9.09896 61.7578 9.125C61.7318 9.15104 61.7188 9.17708 61.7188 9.20312C61.6927 9.28125 61.6276 9.3724 61.5234 9.47656C61.4193 9.55469 61.3672 9.59375 61.3672 9.59375H54.4922C53.9193 9.59375 53.2943 9.76302 52.6172 10.1016C51.9661 10.4141 51.3411 10.8307 50.7422 11.3516C50.1693 11.8464 49.6875 12.4193 49.2969 13.0703C48.9323 13.6953 48.75 14.3073 48.75 14.9062V20.4531C48.4635 20.4531 48.2552 20.4922 48.125 20.5703C47.9948 20.6224 47.8776 20.6875 47.7734 20.7656C47.6953 20.8438 47.6042 20.9089 47.5 20.9609C47.3958 21.013 47.2526 21.0391 47.0703 21.0391H46.9922C46.9661 21.0391 46.9401 21.026 46.9141 21C46.8099 20.974 46.7188 20.9219 46.6406 20.8438C46.5625 20.7396 46.5234 20.6745 46.5234 20.6484L45.3516 13.3828ZM73.6719 19.0859C73.2552 19.0859 72.8125 19.151 72.3438 19.2812C71.901 19.3854 71.4583 19.5156 71.0156 19.6719C70.5729 19.8281 70.1042 19.9714 69.6094 20.1016C69.1406 20.2057 68.6589 20.2578 68.1641 20.2578C67.4089 20.2578 66.6797 20.1406 65.9766 19.9062C65.2734 19.6719 64.6484 19.3203 64.1016 18.8516C63.5807 18.3828 63.1641 17.8229 62.8516 17.1719C62.5391 16.4948 62.3828 15.7396 62.3828 14.9062C62.3828 14.1771 62.6042 13.5 63.0469 12.875C63.5156 12.25 64.0885 11.7292 64.7656 11.3125C65.4427 10.8958 66.1719 10.5703 66.9531 10.3359C67.7344 10.1016 68.4375 9.98438 69.0625 9.98438C69.349 9.98438 69.7005 10.0104 70.1172 10.0625C70.5599 10.0885 71.0286 10.1536 71.5234 10.2578C72.0443 10.3359 72.5651 10.4531 73.0859 10.6094C73.6068 10.7396 74.0755 10.9219 74.4922 11.1562C74.9349 11.3906 75.2995 11.6641 75.5859 11.9766C75.8984 12.263 76.0807 12.6016 76.1328 12.9922C76.1328 13.1224 76.1068 13.3568 76.0547 13.6953C76.0026 14.0078 75.9635 14.3464 75.9375 14.7109C75.9115 15.0755 75.8724 15.4271 75.8203 15.7656C75.7943 16.0781 75.7682 16.3125 75.7422 16.4688V16.7031C75.7422 17.276 75.8724 17.7057 76.1328 17.9922C76.3932 18.2786 76.7057 18.487 77.0703 18.6172C77.4609 18.7214 77.8646 18.7734 78.2812 18.7734H79.5312C79.9219 18.7734 80.1693 18.7734 80.2734 18.7734C80.3776 18.7474 80.4427 18.7344 80.4688 18.7344C80.5208 18.7344 80.5859 18.7344 80.6641 18.7344C80.7682 18.7083 81.0286 18.6953 81.4453 18.6953C81.7839 18.6953 82.0443 18.7604 82.2266 18.8906C82.4089 19.0208 82.5 19.2943 82.5 19.7109C82.5 20.1536 82.3568 20.4661 82.0703 20.6484C81.7839 20.8307 81.4453 20.9479 81.0547 21C80.6641 21.0781 80.2734 21.1042 79.8828 21.0781C79.4922 21.0521 79.1927 21.0391 78.9844 21.0391C78.3854 21.0391 77.8125 20.9349 77.2656 20.7266C76.7448 20.5182 76.263 20.2969 75.8203 20.0625C75.3776 19.8021 74.974 19.5807 74.6094 19.3984C74.2448 19.1901 73.9323 19.0859 73.6719 19.0859ZM64.6875 15.2969C64.6875 15.9219 64.8177 16.4297 65.0781 16.8203C65.3646 17.1849 65.7031 17.4583 66.0938 17.6406C66.5104 17.7969 66.9661 17.901 67.4609 17.9531C67.9557 17.9792 68.4375 17.9922 68.9062 17.9922C69.0885 17.9922 69.388 17.9792 69.8047 17.9531C70.2474 17.9271 70.7031 17.875 71.1719 17.7969C71.6406 17.6927 72.0573 17.5625 72.4219 17.4062C72.8125 17.25 73.0339 17.0547 73.0859 16.8203L73.8672 13.7734C73.9193 13.5651 73.8672 13.3828 73.7109 13.2266C73.5547 13.0703 73.3333 12.9401 73.0469 12.8359C72.7865 12.7318 72.487 12.6406 72.1484 12.5625C71.8359 12.4844 71.5234 12.4193 71.2109 12.3672C70.8984 12.3151 70.612 12.276 70.3516 12.25C70.1172 12.224 69.974 12.2109 69.9219 12.2109C69.4531 12.2109 68.9062 12.263 68.2812 12.3672C67.6823 12.4453 67.1094 12.6016 66.5625 12.8359C66.0417 13.0443 65.599 13.3438 65.2344 13.7344C64.8698 14.125 64.6875 14.6458 64.6875 15.2969ZM87.4219 10.8047C86.6927 10.8047 86.0156 10.8698 85.3906 11C84.7917 11.1042 84.1276 11.1562 83.3984 11.1562C83.112 11.1562 82.9297 11.0521 82.8516 10.8438C82.7734 10.6094 82.7344 10.388 82.7344 10.1797V9.98438C82.7865 9.88021 82.8646 9.75 82.9688 9.59375C83.099 9.4375 83.2292 9.29427 83.3594 9.16406C83.4896 9.00781 83.5938 8.8776 83.6719 8.77344C83.776 8.66927 83.8411 8.61719 83.8672 8.61719H87.4609V2.75781C87.4609 2.65365 87.5 2.57552 87.5781 2.52344C87.6562 2.47135 87.7474 2.43229 87.8516 2.40625C87.9818 2.35417 88.099 2.32812 88.2031 2.32812C88.3073 2.30208 88.3854 2.28906 88.4375 2.28906C88.8542 2.28906 89.1536 2.44531 89.3359 2.75781C89.5443 3.04427 89.6745 3.40885 89.7266 3.85156C89.8047 4.29427 89.8307 4.77604 89.8047 5.29688C89.8047 5.81771 89.8047 6.29948 89.8047 6.74219C89.8047 7.1849 89.8307 7.57552 89.8828 7.91406C89.9609 8.22656 90.1172 8.39583 90.3516 8.42188C90.5599 8.44792 90.9505 8.5 91.5234 8.57812C92.1224 8.63021 92.7344 8.70833 93.3594 8.8125C94.0104 8.89062 94.6224 8.96875 95.1953 9.04688C95.7682 9.125 96.1849 9.17708 96.4453 9.20312C96.4974 9.20312 96.5885 9.22917 96.7188 9.28125C96.875 9.30729 97.0312 9.33333 97.1875 9.35938C97.3698 9.38542 97.526 9.42448 97.6562 9.47656C97.7865 9.52865 97.8776 9.56771 97.9297 9.59375C97.9818 9.59375 98.0599 9.64583 98.1641 9.75C98.2682 9.85417 98.3203 9.93229 98.3203 9.98438C98.3203 10.1667 98.2682 10.3359 98.1641 10.4922C98.0599 10.6484 97.9297 10.7786 97.7734 10.8828C97.6172 10.9609 97.4479 11.026 97.2656 11.0781C97.1094 11.1042 96.9531 11.1172 96.7969 11.1172C96.7448 11.1172 96.6016 11.1042 96.3672 11.0781C96.1328 11.026 95.8854 10.974 95.625 10.9219C95.3906 10.8698 95.1562 10.8307 94.9219 10.8047C94.7135 10.7526 94.5833 10.7266 94.5312 10.7266H94.1406C93.9062 10.7266 93.6589 10.7266 93.3984 10.7266C93.138 10.7266 92.8776 10.7266 92.6172 10.7266H91.5625C91.3802 10.7266 91.1979 10.7266 91.0156 10.7266C90.8333 10.7266 90.6771 10.7266 90.5469 10.7266H90.3516L89.9609 11.1172C89.9609 11.1432 89.9609 11.2344 89.9609 11.3906C89.9609 11.5469 89.9479 11.7292 89.9219 11.9375C89.8958 12.1458 89.8698 12.3672 89.8438 12.6016C89.8438 12.8099 89.8438 12.9792 89.8438 13.1094C89.8438 14.5156 89.987 15.6224 90.2734 16.4297C90.5599 17.237 91.0026 17.849 91.6016 18.2656C92.2266 18.6562 93.0078 18.9036 93.9453 19.0078C94.9089 19.0859 96.0807 19.125 97.4609 19.125C97.6172 19.125 97.8255 19.125 98.0859 19.125C98.3464 19.125 98.6068 19.125 98.8672 19.125C99.1276 19.125 99.349 19.125 99.5312 19.125C99.7135 19.099 99.8177 19.0859 99.8438 19.0859C99.8698 19.0859 99.9349 19.0729 100.039 19.0469C100.143 18.9948 100.26 18.9557 100.391 18.9297C100.547 18.8776 100.664 18.8255 100.742 18.7734C100.846 18.7214 100.924 18.6953 100.977 18.6953C101.081 18.6953 101.159 18.7474 101.211 18.8516C101.289 18.9297 101.341 19.0339 101.367 19.1641C101.393 19.2943 101.406 19.4115 101.406 19.5156V19.7891C101.406 20.2057 101.315 20.5052 101.133 20.6875C100.951 20.8698 100.521 20.974 99.8438 21H99.1797C98.8672 21 98.5417 21 98.2031 21C97.8906 21.026 97.5651 21.0391 97.2266 21.0391H96.6406C95.1562 21.0391 93.8932 20.987 92.8516 20.8828C91.8099 20.7526 90.9505 20.5573 90.2734 20.2969C89.5964 20.0104 89.0625 19.6328 88.6719 19.1641C88.2812 18.6953 87.9948 18.0833 87.8125 17.3281C87.6562 16.5729 87.5521 15.6615 87.5 14.5938C87.4479 13.526 87.4219 12.263 87.4219 10.8047ZM107.578 10.8047C106.849 10.8047 106.172 10.8698 105.547 11C104.948 11.1042 104.284 11.1562 103.555 11.1562C103.268 11.1562 103.086 11.0521 103.008 10.8438C102.93 10.6094 102.891 10.388 102.891 10.1797V9.98438C102.943 9.88021 103.021 9.75 103.125 9.59375C103.255 9.4375 103.385 9.29427 103.516 9.16406C103.646 9.00781 103.75 8.8776 103.828 8.77344C103.932 8.66927 103.997 8.61719 104.023 8.61719H107.617V2.75781C107.617 2.65365 107.656 2.57552 107.734 2.52344C107.812 2.47135 107.904 2.43229 108.008 2.40625C108.138 2.35417 108.255 2.32812 108.359 2.32812C108.464 2.30208 108.542 2.28906 108.594 2.28906C109.01 2.28906 109.31 2.44531 109.492 2.75781C109.701 3.04427 109.831 3.40885 109.883 3.85156C109.961 4.29427 109.987 4.77604 109.961 5.29688C109.961 5.81771 109.961 6.29948 109.961 6.74219C109.961 7.1849 109.987 7.57552 110.039 7.91406C110.117 8.22656 110.273 8.39583 110.508 8.42188C110.716 8.44792 111.107 8.5 111.68 8.57812C112.279 8.63021 112.891 8.70833 113.516 8.8125C114.167 8.89062 114.779 8.96875 115.352 9.04688C115.924 9.125 116.341 9.17708 116.602 9.20312C116.654 9.20312 116.745 9.22917 116.875 9.28125C117.031 9.30729 117.188 9.33333 117.344 9.35938C117.526 9.38542 117.682 9.42448 117.812 9.47656C117.943 9.52865 118.034 9.56771 118.086 9.59375C118.138 9.59375 118.216 9.64583 118.32 9.75C118.424 9.85417 118.477 9.93229 118.477 9.98438C118.477 10.1667 118.424 10.3359 118.32 10.4922C118.216 10.6484 118.086 10.7786 117.93 10.8828C117.773 10.9609 117.604 11.026 117.422 11.0781C117.266 11.1042 117.109 11.1172 116.953 11.1172C116.901 11.1172 116.758 11.1042 116.523 11.0781C116.289 11.026 116.042 10.974 115.781 10.9219C115.547 10.8698 115.312 10.8307 115.078 10.8047C114.87 10.7526 114.74 10.7266 114.688 10.7266H114.297C114.062 10.7266 113.815 10.7266 113.555 10.7266C113.294 10.7266 113.034 10.7266 112.773 10.7266H111.719C111.536 10.7266 111.354 10.7266 111.172 10.7266C110.99 10.7266 110.833 10.7266 110.703 10.7266H110.508L110.117 11.1172C110.117 11.1432 110.117 11.2344 110.117 11.3906C110.117 11.5469 110.104 11.7292 110.078 11.9375C110.052 12.1458 110.026 12.3672 110 12.6016C110 12.8099 110 12.9792 110 13.1094C110 14.5156 110.143 15.6224 110.43 16.4297C110.716 17.237 111.159 17.849 111.758 18.2656C112.383 18.6562 113.164 18.9036 114.102 19.0078C115.065 19.0859 116.237 19.125 117.617 19.125C117.773 19.125 117.982 19.125 118.242 19.125C118.503 19.125 118.763 19.125 119.023 19.125C119.284 19.125 119.505 19.125 119.688 19.125C119.87 19.099 119.974 19.0859 120 19.0859C120.026 19.0859 120.091 19.0729 120.195 19.0469C120.299 18.9948 120.417 18.9557 120.547 18.9297C120.703 18.8776 120.82 18.8255 120.898 18.7734C121.003 18.7214 121.081 18.6953 121.133 18.6953C121.237 18.6953 121.315 18.7474 121.367 18.8516C121.445 18.9297 121.497 19.0339 121.523 19.1641C121.549 19.2943 121.562 19.4115 121.562 19.5156V19.7891C121.562 20.2057 121.471 20.5052 121.289 20.6875C121.107 20.8698 120.677 20.974 120 21H119.336C119.023 21 118.698 21 118.359 21C118.047 21.026 117.721 21.0391 117.383 21.0391H116.797C115.312 21.0391 114.049 20.987 113.008 20.8828C111.966 20.7526 111.107 20.5573 110.43 20.2969C109.753 20.0104 109.219 19.6328 108.828 19.1641C108.438 18.6953 108.151 18.0833 107.969 17.3281C107.812 16.5729 107.708 15.6615 107.656 14.5938C107.604 13.526 107.578 12.263 107.578 10.8047ZM134.531 12.6016C133.75 12.6016 133.073 12.7448 132.5 13.0312C131.953 13.3177 131.458 13.6693 131.016 14.0859C130.573 14.5026 130.195 14.9714 129.883 15.4922C129.57 15.987 129.258 16.4557 128.945 16.8984C128.633 17.3151 128.307 17.6667 127.969 17.9531C127.63 18.2396 127.24 18.3828 126.797 18.3828C126.484 18.3828 126.237 18.2526 126.055 17.9922C125.898 17.7318 125.781 17.4583 125.703 17.1719C125.365 16.0521 125.013 14.8542 124.648 13.5781C124.31 12.276 123.984 10.9609 123.672 9.63281C123.359 8.30469 123.099 6.97656 122.891 5.64844C122.682 4.29427 122.578 3.00521 122.578 1.78125V1.54688C122.578 1.41667 122.578 1.28646 122.578 1.15625C122.604 1 122.617 0.869792 122.617 0.765625V0.453125C122.669 0.21875 122.799 0.101562 123.008 0.101562C123.216 0.0755208 123.411 0.0625 123.594 0.0625C123.62 0.0625 123.711 0.0625 123.867 0.0625C124.049 0.0625 124.154 0.0625 124.18 0.0625C124.232 0.453125 124.323 1.05208 124.453 1.85938C124.583 2.66667 124.74 3.5651 124.922 4.55469C125.13 5.54427 125.339 6.57292 125.547 7.64062C125.781 8.68229 126.016 9.63281 126.25 10.4922C126.51 11.3516 126.771 12.0547 127.031 12.6016C127.292 13.1484 127.539 13.4219 127.773 13.4219C128.164 13.4219 128.62 13.2656 129.141 12.9531C129.661 12.6406 130.208 12.2891 130.781 11.8984C131.38 11.5078 132.005 11.1432 132.656 10.8047C133.333 10.4661 134.036 10.2969 134.766 10.2969C134.922 10.2969 135.13 10.3099 135.391 10.3359C135.651 10.3359 135.911 10.349 136.172 10.375C136.458 10.401 136.719 10.4401 136.953 10.4922C137.214 10.5443 137.383 10.6224 137.461 10.7266L140.938 14.1641C141.146 14.3724 141.328 14.75 141.484 15.2969C141.641 15.8438 141.771 16.4297 141.875 17.0547C141.979 17.6797 142.044 18.2786 142.07 18.8516C142.096 19.3984 142.109 19.8281 142.109 20.1406C142.109 20.5052 141.992 20.7526 141.758 20.8828C141.523 20.987 141.25 21.0391 140.938 21.0391C140.521 21.0391 140.221 20.8307 140.039 20.4141C139.857 19.9974 139.688 19.4766 139.531 18.8516C139.401 18.2005 139.245 17.5234 139.062 16.8203C138.88 16.0911 138.62 15.4141 138.281 14.7891C137.943 14.138 137.474 13.6172 136.875 13.2266C136.302 12.8099 135.521 12.6016 134.531 12.6016ZM154.023 19.0859C153.607 19.0859 153.164 19.151 152.695 19.2812C152.253 19.3854 151.81 19.5156 151.367 19.6719C150.924 19.8281 150.456 19.9714 149.961 20.1016C149.492 20.2057 149.01 20.2578 148.516 20.2578C147.76 20.2578 147.031 20.1406 146.328 19.9062C145.625 19.6719 145 19.3203 144.453 18.8516C143.932 18.3828 143.516 17.8229 143.203 17.1719C142.891 16.4948 142.734 15.7396 142.734 14.9062C142.734 14.1771 142.956 13.5 143.398 12.875C143.867 12.25 144.44 11.7292 145.117 11.3125C145.794 10.8958 146.523 10.5703 147.305 10.3359C148.086 10.1016 148.789 9.98438 149.414 9.98438C149.701 9.98438 150.052 10.0104 150.469 10.0625C150.911 10.0885 151.38 10.1536 151.875 10.2578C152.396 10.3359 152.917 10.4531 153.438 10.6094C153.958 10.7396 154.427 10.9219 154.844 11.1562C155.286 11.3906 155.651 11.6641 155.938 11.9766C156.25 12.263 156.432 12.6016 156.484 12.9922C156.484 13.1224 156.458 13.3568 156.406 13.6953C156.354 14.0078 156.315 14.3464 156.289 14.7109C156.263 15.0755 156.224 15.4271 156.172 15.7656C156.146 16.0781 156.12 16.3125 156.094 16.4688V16.7031C156.094 17.276 156.224 17.7057 156.484 17.9922C156.745 18.2786 157.057 18.487 157.422 18.6172C157.812 18.7214 158.216 18.7734 158.633 18.7734H159.883C160.273 18.7734 160.521 18.7734 160.625 18.7734C160.729 18.7474 160.794 18.7344 160.82 18.7344C160.872 18.7344 160.938 18.7344 161.016 18.7344C161.12 18.7083 161.38 18.6953 161.797 18.6953C162.135 18.6953 162.396 18.7604 162.578 18.8906C162.76 19.0208 162.852 19.2943 162.852 19.7109C162.852 20.1536 162.708 20.4661 162.422 20.6484C162.135 20.8307 161.797 20.9479 161.406 21C161.016 21.0781 160.625 21.1042 160.234 21.0781C159.844 21.0521 159.544 21.0391 159.336 21.0391C158.737 21.0391 158.164 20.9349 157.617 20.7266C157.096 20.5182 156.615 20.2969 156.172 20.0625C155.729 19.8021 155.326 19.5807 154.961 19.3984C154.596 19.1901 154.284 19.0859 154.023 19.0859ZM145.039 15.2969C145.039 15.9219 145.169 16.4297 145.43 16.8203C145.716 17.1849 146.055 17.4583 146.445 17.6406C146.862 17.7969 147.318 17.901 147.812 17.9531C148.307 17.9792 148.789 17.9922 149.258 17.9922C149.44 17.9922 149.74 17.9792 150.156 17.9531C150.599 17.9271 151.055 17.875 151.523 17.7969C151.992 17.6927 152.409 17.5625 152.773 17.4062C153.164 17.25 153.385 17.0547 153.438 16.8203L154.219 13.7734C154.271 13.5651 154.219 13.3828 154.062 13.2266C153.906 13.0703 153.685 12.9401 153.398 12.8359C153.138 12.7318 152.839 12.6406 152.5 12.5625C152.188 12.4844 151.875 12.4193 151.562 12.3672C151.25 12.3151 150.964 12.276 150.703 12.25C150.469 12.224 150.326 12.2109 150.273 12.2109C149.805 12.2109 149.258 12.263 148.633 12.3672C148.034 12.4453 147.461 12.6016 146.914 12.8359C146.393 13.0443 145.951 13.3438 145.586 13.7344C145.221 14.125 145.039 14.6458 145.039 15.2969Z" fill="black"/>
</svg>
