<svg width="114" height="114" viewBox="0 0 114 114" fill="none" xmlns="http://www.w3.org/2000/svg">
<path d="M51.6562 32.0625V71.25C51.6504 76.9172 49.3965 82.3506 45.3891 86.3579C41.3818 90.3652 35.9484 92.6191 30.2812 92.625C29.3364 92.625 28.4303 92.2497 27.7622 91.5816C27.0941 90.9135 26.7188 90.0073 26.7188 89.0625C26.7188 88.1177 27.0941 87.2115 27.7622 86.5434C28.4303 85.8753 29.3364 85.5 30.2812 85.5C34.0606 85.5 37.6851 83.9987 40.3575 81.3263C43.0299 78.6539 44.5312 75.0293 44.5312 71.25V67.6875H17.8125C15.9228 67.6875 14.1106 66.9368 12.7744 65.6006C11.4382 64.2644 10.6875 62.4522 10.6875 60.5625V32.0625C10.6875 30.1728 11.4382 28.3606 12.7744 27.0244C14.1106 25.6882 15.9228 24.9375 17.8125 24.9375H44.5312C46.4209 24.9375 48.2332 25.6882 49.5694 27.0244C50.9056 28.3606 51.6562 30.1728 51.6562 32.0625ZM96.1875 24.9375H69.4688C67.5791 24.9375 65.7668 25.6882 64.4306 27.0244C63.0944 28.3606 62.3438 30.1728 62.3438 32.0625V60.5625C62.3438 62.4522 63.0944 64.2644 64.4306 65.6006C65.7668 66.9368 67.5791 67.6875 69.4688 67.6875H96.1875V71.25C96.1875 75.0293 94.6862 78.6539 92.0138 81.3263C89.3414 83.9987 85.7168 85.5 81.9375 85.5C80.9927 85.5 80.0865 85.8753 79.4184 86.5434C78.7503 87.2115 78.375 88.1177 78.375 89.0625C78.375 90.0073 78.7503 90.9135 79.4184 91.5816C80.0865 92.2497 80.9927 92.625 81.9375 92.625C87.6047 92.6191 93.0381 90.3652 97.0454 86.3579C101.053 82.3506 103.307 76.9172 103.312 71.25V32.0625C103.312 30.1728 102.562 28.3606 101.226 27.0244C99.8894 25.6882 98.0772 24.9375 96.1875 24.9375Z" fill="#E4F794"/>
</svg>
